<?xml version="1.0" encoding="UTF-8" standalone="no"?>
<!DOCTYPE svg PUBLIC "-//W3C//DTD SVG 1.1//EN"
 "http://www.w3.org/Graphics/SVG/1.1/DTD/svg11.dtd">
<!-- Generated by graphviz version 2.43.0 (0)
 -->
<!-- Title: PdfHandler Pages: 1 -->
<svg width="192pt" height="116pt"
 viewBox="0.00 0.00 192.00 116.00" xmlns="http://www.w3.org/2000/svg" xmlns:xlink="http://www.w3.org/1999/xlink">
<g id="graph0" class="graph" transform="scale(1 1) rotate(0) translate(4 112)">
<title>PdfHandler</title>
<polygon fill="white" stroke="transparent" points="-4,4 -4,-112 188,-112 188,4 -4,4"/>
<!-- PdfHandler -->
<g id="node1" class="node">
<title>PdfHandler</title>
<g id="a_node1"><a xlink:href="PdfHandler.html" xlink:title="PdfHandler">
<polygon fill="none" stroke="black" stroke-width="2" points="132,-36 53,-36 53,0 132,0 132,-36"/>
<text text-anchor="middle" x="92.5" y="-14.3" font-family="Times" font-size="14.00">PdfHandler</text>
</a>
</g>
</g>
<!-- GLib.Object -->
<g id="node2" class="node">
<title>GLib.Object</title>
<polygon fill="none" stroke="black" stroke-width="2" points="85,-108 0,-108 0,-72 85,-72 85,-108"/>
<text text-anchor="middle" x="42.5" y="-86.3" font-family="Times" font-size="14.00">GLib.Object</text>
</g>
<!-- GLib.Object&#45;&gt;PdfHandler -->
<g id="edge1" class="edge">
<title>GLib.Object&#45;&gt;PdfHandler</title>
<path fill="none" stroke="black" d="M60.81,-63.36C67.3,-54.28 74.43,-44.3 80.28,-36.1"/>
<polygon fill="black" stroke="black" points="57.82,-61.52 54.86,-71.7 63.52,-65.59 57.82,-61.52"/>
</g>
<!-- FileHandler -->
<g id="node3" class="node">
<title>FileHandler</title>
<g id="a_node3"><a xlink:href="FileHandler.html" xlink:title="FileHandler">
<polygon fill="none" stroke="black" points="184,-108 103,-108 103,-72 184,-72 184,-108"/>
<text text-anchor="middle" x="143.5" y="-86.3" font-family="Times" font-size="14.00">FileHandler</text>
</a>
</g>
</g>
<!-- FileHandler&#45;&gt;PdfHandler -->
<g id="edge2" class="edge">
<title>FileHandler&#45;&gt;PdfHandler</title>
<path fill="none" stroke="black" d="M124.82,-63.36C118.21,-54.28 110.93,-44.3 104.96,-36.1"/>
<polygon fill="black" stroke="black" points="122.18,-65.68 130.89,-71.7 127.83,-61.55 122.18,-65.68"/>
</g>
</g>
</svg>
