<?xml version="1.0" encoding="UTF-8" standalone="no"?>
<!DOCTYPE svg PUBLIC "-//W3C//DTD SVG 1.1//EN"
 "http://www.w3.org/Graphics/SVG/1.1/DTD/svg11.dtd">
<!-- Generated by graphviz version 2.43.0 (0)
 -->
<!-- Title: TMP.ThunarMetadataProperties Pages: 1 -->
<svg width="300pt" height="116pt"
 viewBox="0.00 0.00 299.50 116.00" xmlns="http://www.w3.org/2000/svg" xmlns:xlink="http://www.w3.org/1999/xlink">
<g id="graph0" class="graph" transform="scale(1 1) rotate(0) translate(4 112)">
<title>TMP.ThunarMetadataProperties</title>
<polygon fill="white" stroke="transparent" points="-4,4 -4,-112 295.5,-112 295.5,4 -4,4"/>
<!-- TMP.ThunarMetadataProperties -->
<g id="node1" class="node">
<title>TMP.ThunarMetadataProperties</title>
<g id="a_node1"><a xlink:href="TMP.ThunarMetadataProperties.html" xlink:title="TMP.ThunarMetadataProperties">
<polygon fill="none" stroke="black" stroke-width="2" points="217,-36 22,-36 22,0 217,0 217,-36"/>
<text text-anchor="middle" x="119.5" y="-14.3" font-family="Times" font-size="14.00">TMP.ThunarMetadataProperties</text>
</a>
</g>
</g>
<!-- GLib.Object -->
<g id="node2" class="node">
<title>GLib.Object</title>
<polygon fill="none" stroke="black" stroke-width="2" points="85,-108 0,-108 0,-72 85,-72 85,-108"/>
<text text-anchor="middle" x="42.5" y="-86.3" font-family="Times" font-size="14.00">GLib.Object</text>
</g>
<!-- GLib.Object&#45;&gt;TMP.ThunarMetadataProperties -->
<g id="edge1" class="edge">
<title>GLib.Object&#45;&gt;TMP.ThunarMetadataProperties</title>
<path fill="none" stroke="black" d="M69.17,-64.76C79.55,-55.32 91.21,-44.72 100.69,-36.1"/>
<polygon fill="black" stroke="black" points="66.58,-62.38 61.53,-71.7 71.29,-67.56 66.58,-62.38"/>
</g>
<!-- Thunarx.PropertyPageProvider -->
<g id="node3" class="node">
<title>Thunarx.PropertyPageProvider</title>
<polygon fill="none" stroke="black" points="291.5,-108 103.5,-108 103.5,-72 291.5,-72 291.5,-108"/>
<text text-anchor="middle" x="197.5" y="-86.3" font-family="Times" font-size="14.00">Thunarx.PropertyPageProvider</text>
</g>
<!-- Thunarx.PropertyPageProvider&#45;&gt;TMP.ThunarMetadataProperties -->
<g id="edge2" class="edge">
<title>Thunarx.PropertyPageProvider&#45;&gt;TMP.ThunarMetadataProperties</title>
<path fill="none" stroke="black" d="M170.48,-64.76C159.97,-55.32 148.16,-44.72 138.56,-36.1"/>
<polygon fill="black" stroke="black" points="168.44,-67.62 178.22,-71.7 173.11,-62.41 168.44,-67.62"/>
</g>
</g>
</svg>
