<?xml version="1.0" encoding="UTF-8" standalone="no"?>
<!DOCTYPE svg PUBLIC "-//W3C//DTD SVG 1.1//EN"
 "http://www.w3.org/Graphics/SVG/1.1/DTD/svg11.dtd">
<!-- Generated by graphviz version 2.43.0 (0)
 -->
<!-- Title: TMP.LegacyOfficeHandler Pages: 1 -->
<svg width="224pt" height="116pt"
 viewBox="0.00 0.00 224.00 116.00" xmlns="http://www.w3.org/2000/svg" xmlns:xlink="http://www.w3.org/1999/xlink">
<g id="graph0" class="graph" transform="scale(1 1) rotate(0) translate(4 112)">
<title>TMP.LegacyOfficeHandler</title>
<polygon fill="white" stroke="transparent" points="-4,4 -4,-112 220,-112 220,4 -4,4"/>
<!-- TMP.LegacyOfficeHandler -->
<g id="node1" class="node">
<title>TMP.LegacyOfficeHandler</title>
<g id="a_node1"><a xlink:href="TMP.LegacyOfficeHandler.html" xlink:title="TMP.LegacyOfficeHandler">
<polygon fill="none" stroke="black" stroke-width="2" points="184,-36 17,-36 17,0 184,0 184,-36"/>
<text text-anchor="middle" x="100.5" y="-14.3" font-family="Times" font-size="14.00">TMP.LegacyOfficeHandler</text>
</a>
</g>
</g>
<!-- GLib.Object -->
<g id="node2" class="node">
<title>GLib.Object</title>
<polygon fill="none" stroke="black" stroke-width="2" points="85,-108 0,-108 0,-72 85,-72 85,-108"/>
<text text-anchor="middle" x="42.5" y="-86.3" font-family="Times" font-size="14.00">GLib.Object</text>
</g>
<!-- GLib.Object&#45;&gt;TMP.LegacyOfficeHandler -->
<g id="edge1" class="edge">
<title>GLib.Object&#45;&gt;TMP.LegacyOfficeHandler</title>
<path fill="none" stroke="black" d="M63.28,-63.92C70.92,-54.69 79.4,-44.47 86.33,-36.1"/>
<polygon fill="black" stroke="black" points="60.52,-61.76 56.84,-71.7 65.91,-66.23 60.52,-61.76"/>
</g>
<!-- TMP.FileHandler -->
<g id="node3" class="node">
<title>TMP.FileHandler</title>
<g id="a_node3"><a xlink:href="TMP.FileHandler.html" xlink:title="TMP.FileHandler">
<polygon fill="none" stroke="black" points="216,-108 103,-108 103,-72 216,-72 216,-108"/>
<text text-anchor="middle" x="159.5" y="-86.3" font-family="Times" font-size="14.00">TMP.FileHandler</text>
</a>
</g>
</g>
<!-- TMP.FileHandler&#45;&gt;TMP.LegacyOfficeHandler -->
<g id="edge2" class="edge">
<title>TMP.FileHandler&#45;&gt;TMP.LegacyOfficeHandler</title>
<path fill="none" stroke="black" d="M138.36,-63.92C130.59,-54.69 121.97,-44.47 114.92,-36.1"/>
<polygon fill="black" stroke="black" points="135.79,-66.31 144.92,-71.7 141.15,-61.79 135.79,-66.31"/>
</g>
</g>
</svg>
